<svg xmlns="http://www.w3.org/2000/svg" xmlns:xlink="http://www.w3.org/1999/xlink" width="250" zoomAndPan="magnify" viewBox="0 0 187.5 74.999997" height="100" preserveAspectRatio="xMidYMid meet" version="1.0"><defs><g/><clipPath id="9f9e8331cf"><rect x="0" width="135" y="0" height="62"/></clipPath><clipPath id="9ab8ce0332"><path d="M 131 0.101562 L 186 0.101562 L 186 72 L 131 72 Z M 131 0.101562 " clip-rule="nonzero"/></clipPath><clipPath id="6a4d503f5b"><rect x="0" width="55" y="0" height="72"/></clipPath></defs><g transform="matrix(1, 0, 0, 1, 3, 10)"><g clip-path="url(#9f9e8331cf)"><g fill="#ffffff" fill-opacity="1"><g transform="translate(1.518729, 44.509025)"><g><path d="M 17.75 -40.96875 C 19.9375 -40.96875 22.066406 -40.648438 24.140625 -40.015625 C 26.222656 -39.390625 27.769531 -38.765625 28.78125 -38.140625 L 30.25 -37.171875 L 26.53125 -29.859375 C 26.238281 -30.046875 25.832031 -30.296875 25.3125 -30.609375 C 24.789062 -30.921875 23.816406 -31.335938 22.390625 -31.859375 C 20.960938 -32.378906 19.628906 -32.640625 18.390625 -32.640625 C 16.859375 -32.640625 15.675781 -32.3125 14.84375 -31.65625 C 14.019531 -31.007812 13.609375 -30.132812 13.609375 -29.03125 C 13.609375 -28.476562 13.800781 -27.960938 14.1875 -27.484375 C 14.582031 -27.015625 15.25 -26.507812 16.1875 -25.96875 C 17.132812 -25.4375 17.960938 -25.007812 18.671875 -24.6875 C 19.390625 -24.363281 20.5 -23.875 22 -23.21875 C 24.601562 -22.113281 26.820312 -20.609375 28.65625 -18.703125 C 30.5 -16.804688 31.421875 -14.65625 31.421875 -12.25 C 31.421875 -9.9375 31.003906 -7.914062 30.171875 -6.1875 C 29.335938 -4.46875 28.195312 -3.117188 26.75 -2.140625 C 25.300781 -1.171875 23.695312 -0.453125 21.9375 0.015625 C 20.1875 0.492188 18.289062 0.734375 16.25 0.734375 C 14.488281 0.734375 12.757812 0.550781 11.0625 0.1875 C 9.375 -0.164062 7.960938 -0.609375 6.828125 -1.140625 C 5.691406 -1.679688 4.664062 -2.210938 3.75 -2.734375 C 2.84375 -3.253906 2.175781 -3.691406 1.75 -4.046875 L 1.125 -4.578125 L 5.703125 -12.296875 C 6.097656 -11.972656 6.632812 -11.554688 7.3125 -11.046875 C 8 -10.546875 9.210938 -9.867188 10.953125 -9.015625 C 12.691406 -8.171875 14.226562 -7.75 15.5625 -7.75 C 19.425781 -7.75 21.359375 -9.066406 21.359375 -11.703125 C 21.359375 -12.253906 21.21875 -12.765625 20.9375 -13.234375 C 20.664062 -13.710938 20.179688 -14.1875 19.484375 -14.65625 C 18.785156 -15.125 18.164062 -15.5 17.625 -15.78125 C 17.09375 -16.0625 16.21875 -16.484375 15 -17.046875 C 13.78125 -17.617188 12.878906 -18.050781 12.296875 -18.34375 C 9.859375 -19.539062 7.972656 -21.039062 6.640625 -22.84375 C 5.304688 -24.65625 4.640625 -26.601562 4.640625 -28.6875 C 4.640625 -32.289062 5.972656 -35.238281 8.640625 -37.53125 C 11.304688 -39.820312 14.34375 -40.96875 17.75 -40.96875 Z M 17.75 -40.96875 "/></g></g></g><g fill="#ffffff" fill-opacity="1"><g transform="translate(31.857377, 44.509025)"><g><path d="M 4.390625 -25.03125 L 4.390625 -34.34375 L 13.03125 -34.34375 L 13.03125 -25.03125 L 18.296875 -25.03125 L 18.296875 -18.4375 L 13.03125 -18.4375 L 13.03125 -10.484375 C 13.03125 -8.179688 13.675781 -7.03125 14.96875 -7.03125 C 15.300781 -7.03125 15.644531 -7.09375 16 -7.21875 C 16.351562 -7.351562 16.628906 -7.484375 16.828125 -7.609375 L 17.125 -7.8125 L 19.265625 -0.828125 C 17.410156 0.210938 15.296875 0.734375 12.921875 0.734375 C 11.296875 0.734375 9.894531 0.453125 8.71875 -0.109375 C 7.550781 -0.679688 6.664062 -1.445312 6.0625 -2.40625 C 5.46875 -3.375 5.039062 -4.382812 4.78125 -5.4375 C 4.519531 -6.5 4.390625 -7.628906 4.390625 -8.828125 L 4.390625 -18.4375 L 0.78125 -18.4375 L 0.78125 -25.03125 Z M 4.390625 -25.03125 "/></g></g></g><g fill="#ffffff" fill-opacity="1"><g transform="translate(48.684986, 44.509025)"><g><path d="M 4.625 -3.09375 C 2.289062 -5.644531 1.125 -8.773438 1.125 -12.484375 C 1.125 -16.191406 2.289062 -19.328125 4.625 -21.890625 C 6.96875 -24.460938 9.945312 -25.75 13.5625 -25.75 C 16.875 -25.75 19.601562 -24.710938 21.75 -22.640625 L 21.75 -25.03125 L 30.390625 -25.03125 L 30.390625 0 L 21.859375 0 L 21.859375 -2.828125 L 21.75 -2.828125 C 19.601562 -0.453125 16.875 0.734375 13.5625 0.734375 C 9.945312 0.734375 6.96875 -0.539062 4.625 -3.09375 Z M 11.96875 -16.734375 C 10.851562 -15.628906 10.296875 -14.210938 10.296875 -12.484375 C 10.296875 -10.765625 10.832031 -9.359375 11.90625 -8.265625 C 12.976562 -7.179688 14.390625 -6.640625 16.140625 -6.640625 C 17.835938 -6.640625 19.226562 -7.191406 20.3125 -8.296875 C 21.40625 -9.398438 21.953125 -10.796875 21.953125 -12.484375 C 21.953125 -14.210938 21.390625 -15.628906 20.265625 -16.734375 C 19.140625 -17.835938 17.765625 -18.390625 16.140625 -18.390625 C 14.484375 -18.390625 13.09375 -17.835938 11.96875 -16.734375 Z M 11.96875 -16.734375 "/></g></g></g><g fill="#ffffff" fill-opacity="1"><g transform="translate(79.560177, 44.509025)"><g><path d="M 16.25 -18.6875 C 14.625 -18.6875 13.222656 -18.082031 12.046875 -16.875 C 10.878906 -15.675781 10.296875 -14.226562 10.296875 -12.53125 C 10.296875 -10.8125 10.878906 -9.347656 12.046875 -8.140625 C 13.222656 -6.941406 14.625 -6.34375 16.25 -6.34375 C 17.03125 -6.34375 17.769531 -6.4375 18.46875 -6.625 C 19.164062 -6.820312 19.675781 -7.019531 20 -7.21875 L 20.4375 -7.515625 L 23.359375 -1.515625 C 23.140625 -1.347656 22.828125 -1.140625 22.421875 -0.890625 C 22.015625 -0.648438 21.085938 -0.320312 19.640625 0.09375 C 18.191406 0.519531 16.632812 0.734375 14.96875 0.734375 C 11.300781 0.734375 8.078125 -0.554688 5.296875 -3.140625 C 2.515625 -5.734375 1.125 -8.832031 1.125 -12.4375 C 1.125 -16.082031 2.515625 -19.210938 5.296875 -21.828125 C 8.078125 -24.441406 11.300781 -25.75 14.96875 -25.75 C 16.632812 -25.75 18.164062 -25.550781 19.5625 -25.15625 C 20.957031 -24.769531 21.945312 -24.382812 22.53125 -24 L 23.359375 -23.421875 L 20.4375 -17.515625 C 19.363281 -18.296875 17.96875 -18.6875 16.25 -18.6875 Z M 16.25 -18.6875 "/></g></g></g><g fill="#ffffff" fill-opacity="1"><g transform="translate(101.070314, 44.509025)"><g><path d="M 31.515625 -25.03125 L 19.609375 -13.078125 L 32.6875 0 L 21.5625 0 L 11.5625 -10 L 11.5625 0 L 2.921875 0 L 2.921875 -41.953125 L 11.5625 -41.953125 L 11.5625 -16.296875 L 20.296875 -25.03125 Z M 31.515625 -25.03125 "/></g></g></g></g></g><g clip-path="url(#9ab8ce0332)"><g transform="matrix(1, 0, 0, 1, 131, -0.000000000000008674)"><g clip-path="url(#6a4d503f5b)"><g fill="#ffffff" fill-opacity="1"><g transform="translate(1.551437, 64.219003)"><g><path d="M 49.609375 -54.4375 C 49.972656 -54.4375 50.222656 -54.320312 50.359375 -54.09375 C 50.492188 -53.863281 50.46875 -53.640625 50.28125 -53.421875 L 31.5 -27.21875 C 33.5 -24.445312 35.507812 -21.65625 37.53125 -18.84375 C 39.550781 -16.03125 41.554688 -13.21875 43.546875 -10.40625 L 30.890625 -10.40625 L 25.25 -18.375 L 12.25 -0.203125 C 12.207031 -0.160156 12.113281 -0.113281 11.96875 -0.0625 C 11.832031 -0.0195312 11.722656 0 11.640625 0 L 0.75 0 C 0.425781 0 0.207031 -0.113281 0.09375 -0.34375 C -0.0078125 -0.570312 0.0234375 -0.796875 0.203125 -1.015625 L 18.84375 -27.21875 C 16.851562 -29.988281 14.859375 -32.78125 12.859375 -35.59375 C 10.859375 -38.40625 8.863281 -41.21875 6.875 -44.03125 L 19.53125 -44.03125 L 25.25 -36.0625 L 38.109375 -54.234375 C 38.148438 -54.328125 38.25 -54.382812 38.40625 -54.40625 C 38.570312 -54.425781 38.675781 -54.4375 38.71875 -54.4375 Z M 49.609375 -54.4375 "/></g></g></g></g></g></g></svg>